<svg xmlns="http://www.w3.org/2000/svg" width="164" viewBox="0 0 123 37.5" height="50" version="1.0"><defs><clipPath id="a"><path d="M 2.125 0.746094 L 37.652344 0.746094 L 37.652344 36.269531 L 2.125 36.269531 Z M 2.125 0.746094"/></clipPath></defs><g clip-path="url(#a)"><path fill="#318BA2" d="M 19.886719 0.777344 C 10.09375 0.777344 2.125 8.730469 2.125 18.507812 C 2.125 28.285156 10.09375 36.238281 19.886719 36.238281 C 29.683594 36.238281 37.648438 28.285156 37.648438 18.507812 C 37.652344 8.730469 29.683594 0.777344 19.886719 0.777344 Z M 19.886719 34.851562 C 10.859375 34.851562 3.511719 27.519531 3.511719 18.507812 C 3.511719 9.496094 10.859375 2.164062 19.886719 2.164062 C 28.917969 2.164062 36.265625 9.496094 36.265625 18.507812 C 36.265625 27.519531 28.917969 34.851562 19.886719 34.851562 Z M 19.886719 34.851562"/></g><path fill="#318BA2" d="M 19.886719 3.085938 C 11.367188 3.085938 4.433594 10.003906 4.433594 18.507812 C 4.433594 27.011719 11.367188 33.929688 19.886719 33.929688 C 28.40625 33.929688 35.339844 27.011719 35.339844 18.507812 C 35.339844 10.003906 28.40625 3.085938 19.886719 3.085938 Z M 19.886719 3.085938"/><g fill="#FFF"><g><g><path d="M 9.78125 -14 C 8.644531 -14 7.753906 -13.535156 7.109375 -12.609375 C 6.472656 -11.679688 6.15625 -10.398438 6.15625 -8.765625 C 6.15625 -5.359375 7.453125 -3.65625 10.046875 -3.65625 C 10.828125 -3.65625 11.582031 -3.765625 12.3125 -3.984375 C 13.050781 -4.203125 13.789062 -4.46875 14.53125 -4.78125 L 14.53125 -0.734375 C 13.050781 -0.0859375 11.378906 0.234375 9.515625 0.234375 C 6.847656 0.234375 4.800781 -0.535156 3.375 -2.078125 C 1.957031 -3.628906 1.25 -5.863281 1.25 -8.78125 C 1.25 -10.613281 1.59375 -12.222656 2.28125 -13.609375 C 2.976562 -14.992188 3.972656 -16.054688 5.265625 -16.796875 C 6.554688 -17.546875 8.078125 -17.921875 9.828125 -17.921875 C 11.734375 -17.921875 13.554688 -17.503906 15.296875 -16.671875 L 13.84375 -12.921875 C 13.1875 -13.222656 12.53125 -13.476562 11.875 -13.6875 C 11.226562 -13.894531 10.53125 -14 9.78125 -14 Z M 9.78125 -14" transform="translate(11.816 28.069)"/></g></g></g><g fill="#3D3D3D"><g><g><path d="M 6.265625 -9.53125 C 5.347656 -9.53125 4.640625 -9.1875 4.140625 -8.5 C 3.648438 -7.820312 3.40625 -6.875 3.40625 -5.65625 C 3.40625 -3.113281 4.359375 -1.84375 6.265625 -1.84375 C 7.054688 -1.84375 8.019531 -2.046875 9.15625 -2.453125 L 9.15625 -0.421875 C 8.226562 -0.0351562 7.1875 0.15625 6.03125 0.15625 C 4.375 0.15625 3.109375 -0.34375 2.234375 -1.34375 C 1.359375 -2.351562 0.921875 -3.796875 0.921875 -5.671875 C 0.921875 -6.847656 1.132812 -7.878906 1.5625 -8.765625 C 2 -9.660156 2.617188 -10.34375 3.421875 -10.8125 C 4.234375 -11.289062 5.179688 -11.53125 6.265625 -11.53125 C 7.367188 -11.53125 8.472656 -11.265625 9.578125 -10.734375 L 8.8125 -8.765625 C 8.382812 -8.972656 7.953125 -9.148438 7.515625 -9.296875 C 7.085938 -9.453125 6.671875 -9.53125 6.265625 -9.53125 Z M 6.265625 -9.53125" transform="translate(50.926 17.023)"/></g></g></g><g fill="#3D3D3D"><g><g><path d="M 6.765625 0 L 6.3125 -1.1875 L 6.25 -1.1875 C 5.84375 -0.675781 5.425781 -0.320312 5 -0.125 C 4.582031 0.0625 4.035156 0.15625 3.359375 0.15625 C 2.523438 0.15625 1.867188 -0.0820312 1.390625 -0.5625 C 0.910156 -1.039062 0.671875 -1.71875 0.671875 -2.59375 C 0.671875 -3.519531 0.992188 -4.203125 1.640625 -4.640625 C 2.285156 -5.078125 3.257812 -5.316406 4.5625 -5.359375 L 6.0625 -5.40625 L 6.0625 -5.796875 C 6.0625 -6.671875 5.613281 -7.109375 4.71875 -7.109375 C 4.019531 -7.109375 3.203125 -6.898438 2.265625 -6.484375 L 1.484375 -8.078125 C 2.484375 -8.609375 3.585938 -8.875 4.796875 -8.875 C 5.960938 -8.875 6.859375 -8.617188 7.484375 -8.109375 C 8.109375 -7.597656 8.421875 -6.828125 8.421875 -5.796875 L 8.421875 0 Z M 6.0625 -4.03125 L 5.140625 -4 C 4.453125 -3.976562 3.941406 -3.851562 3.609375 -3.625 C 3.273438 -3.394531 3.109375 -3.046875 3.109375 -2.578125 C 3.109375 -1.910156 3.488281 -1.578125 4.25 -1.578125 C 4.800781 -1.578125 5.238281 -1.734375 5.5625 -2.046875 C 5.894531 -2.367188 6.0625 -2.789062 6.0625 -3.3125 Z M 6.0625 -4.03125" transform="translate(61.065 17.023)"/></g></g></g><g fill="#3D3D3D"><g><g><path d="M 3.609375 0 L 1.25 0 L 1.25 -12.09375 L 3.609375 -12.09375 Z M 3.609375 0" transform="translate(70.677 17.023)"/></g></g></g><g fill="#3D3D3D"><g><g><path d="M 3.140625 -4.359375 C 3.140625 -3.503906 3.28125 -2.851562 3.5625 -2.40625 C 3.84375 -1.96875 4.300781 -1.75 4.9375 -1.75 C 5.570312 -1.75 6.023438 -1.96875 6.296875 -2.40625 C 6.578125 -2.84375 6.71875 -3.492188 6.71875 -4.359375 C 6.71875 -5.222656 6.578125 -5.867188 6.296875 -6.296875 C 6.015625 -6.722656 5.554688 -6.9375 4.921875 -6.9375 C 4.285156 -6.9375 3.828125 -6.722656 3.546875 -6.296875 C 3.273438 -5.867188 3.140625 -5.222656 3.140625 -4.359375 Z M 9.140625 -4.359375 C 9.140625 -2.941406 8.765625 -1.832031 8.015625 -1.03125 C 7.273438 -0.238281 6.238281 0.15625 4.90625 0.15625 C 4.070312 0.15625 3.332031 -0.0234375 2.6875 -0.390625 C 2.050781 -0.753906 1.5625 -1.28125 1.21875 -1.96875 C 0.882812 -2.65625 0.71875 -3.453125 0.71875 -4.359375 C 0.71875 -5.773438 1.085938 -6.878906 1.828125 -7.671875 C 2.566406 -8.460938 3.609375 -8.859375 4.953125 -8.859375 C 5.785156 -8.859375 6.519531 -8.675781 7.15625 -8.3125 C 7.789062 -7.945312 8.28125 -7.425781 8.625 -6.75 C 8.96875 -6.070312 9.140625 -5.273438 9.140625 -4.359375 Z M 9.140625 -4.359375" transform="translate(75.533 17.023)"/></g></g></g><g fill="#3D3D3D"><g><g><path d="M 6.09375 -8.859375 C 6.414062 -8.859375 6.679688 -8.832031 6.890625 -8.78125 L 6.71875 -6.5625 C 6.519531 -6.613281 6.285156 -6.640625 6.015625 -6.640625 C 5.253906 -6.640625 4.660156 -6.441406 4.234375 -6.046875 C 3.816406 -5.660156 3.609375 -5.117188 3.609375 -4.421875 L 3.609375 0 L 1.25 0 L 1.25 -8.6875 L 3.046875 -8.6875 L 3.390625 -7.234375 L 3.5 -7.234375 C 3.769531 -7.722656 4.132812 -8.113281 4.59375 -8.40625 C 5.050781 -8.707031 5.550781 -8.859375 6.09375 -8.859375 Z M 6.09375 -8.859375" transform="translate(85.385 17.023)"/></g></g></g><g fill="#3D3D3D"><g><g><path d="M 1.140625 -10.9375 C 1.140625 -11.707031 1.570312 -12.09375 2.4375 -12.09375 C 3.289062 -12.09375 3.71875 -11.707031 3.71875 -10.9375 C 3.71875 -10.570312 3.609375 -10.285156 3.390625 -10.078125 C 3.179688 -9.867188 2.863281 -9.765625 2.4375 -9.765625 C 1.570312 -9.765625 1.140625 -10.15625 1.140625 -10.9375 Z M 3.609375 0 L 1.25 0 L 1.25 -8.6875 L 3.609375 -8.6875 Z M 3.609375 0" transform="translate(92.611 17.023)"/></g></g></g><g fill="#3D3D3D"><g><g><path d="M 4.84375 -7.171875 C 4.34375 -7.171875 3.945312 -7.007812 3.65625 -6.6875 C 3.375 -6.375 3.210938 -5.921875 3.171875 -5.328125 L 6.5 -5.328125 C 6.488281 -5.921875 6.332031 -6.375 6.03125 -6.6875 C 5.738281 -7.007812 5.34375 -7.171875 4.84375 -7.171875 Z M 5.171875 0.15625 C 3.773438 0.15625 2.679688 -0.226562 1.890625 -1 C 1.109375 -1.769531 0.71875 -2.863281 0.71875 -4.28125 C 0.71875 -5.738281 1.082031 -6.863281 1.8125 -7.65625 C 2.539062 -8.457031 3.546875 -8.859375 4.828125 -8.859375 C 6.054688 -8.859375 7.007812 -8.503906 7.6875 -7.796875 C 8.375 -7.097656 8.71875 -6.132812 8.71875 -4.90625 L 8.71875 -3.75 L 3.125 -3.75 C 3.144531 -3.082031 3.34375 -2.554688 3.71875 -2.171875 C 4.09375 -1.796875 4.613281 -1.609375 5.28125 -1.609375 C 5.8125 -1.609375 6.304688 -1.660156 6.765625 -1.765625 C 7.234375 -1.878906 7.722656 -2.054688 8.234375 -2.296875 L 8.234375 -0.453125 C 7.816406 -0.242188 7.375 -0.09375 6.90625 0 C 6.4375 0.101562 5.859375 0.15625 5.171875 0.15625 Z M 5.171875 0.15625" transform="translate(97.468 17.023)"/></g></g></g><g fill="#3D3D3D"><g><g><path d="M 5.8125 0 L 3.40625 0 L 3.40625 -9.359375 L 0.3125 -9.359375 L 0.3125 -11.359375 L 8.90625 -11.359375 L 8.90625 -9.359375 L 5.8125 -9.359375 Z M 5.8125 0" transform="translate(48.532 32.566)"/></g></g></g><g fill="#3D3D3D"><g><g><path d="M 6.09375 -8.859375 C 6.414062 -8.859375 6.679688 -8.832031 6.890625 -8.78125 L 6.71875 -6.5625 C 6.519531 -6.613281 6.285156 -6.640625 6.015625 -6.640625 C 5.253906 -6.640625 4.660156 -6.441406 4.234375 -6.046875 C 3.816406 -5.660156 3.609375 -5.117188 3.609375 -4.421875 L 3.609375 0 L 1.25 0 L 1.25 -8.6875 L 3.046875 -8.6875 L 3.390625 -7.234375 L 3.5 -7.234375 C 3.769531 -7.722656 4.132812 -8.113281 4.59375 -8.40625 C 5.050781 -8.707031 5.550781 -8.859375 6.09375 -8.859375 Z M 6.09375 -8.859375" transform="translate(57.747 32.566)"/></g></g></g><g fill="#3D3D3D"><g><g><path d="M 6.765625 0 L 6.3125 -1.1875 L 6.25 -1.1875 C 5.84375 -0.675781 5.425781 -0.320312 5 -0.125 C 4.582031 0.0625 4.035156 0.15625 3.359375 0.15625 C 2.523438 0.15625 1.867188 -0.0820312 1.390625 -0.5625 C 0.910156 -1.039062 0.671875 -1.71875 0.671875 -2.59375 C 0.671875 -3.519531 0.992188 -4.203125 1.640625 -4.640625 C 2.285156 -5.078125 3.257812 -5.316406 4.5625 -5.359375 L 6.0625 -5.40625 L 6.0625 -5.796875 C 6.0625 -6.671875 5.613281 -7.109375 4.71875 -7.109375 C 4.019531 -7.109375 3.203125 -6.898438 2.265625 -6.484375 L 1.484375 -8.078125 C 2.484375 -8.609375 3.585938 -8.875 4.796875 -8.875 C 5.960938 -8.875 6.859375 -8.617188 7.484375 -8.109375 C 8.109375 -7.597656 8.421875 -6.828125 8.421875 -5.796875 L 8.421875 0 Z M 6.0625 -4.03125 L 5.140625 -4 C 4.453125 -3.976562 3.941406 -3.851562 3.609375 -3.625 C 3.273438 -3.394531 3.109375 -3.046875 3.109375 -2.578125 C 3.109375 -1.910156 3.488281 -1.578125 4.25 -1.578125 C 4.800781 -1.578125 5.238281 -1.734375 5.5625 -2.046875 C 5.894531 -2.367188 6.0625 -2.789062 6.0625 -3.3125 Z M 6.0625 -4.03125" transform="translate(64.973 32.566)"/></g></g></g><g fill="#3D3D3D"><g><g><path d="M 4.78125 0.15625 C 2.070312 0.15625 0.71875 -1.328125 0.71875 -4.296875 C 0.71875 -5.773438 1.082031 -6.90625 1.8125 -7.6875 C 2.550781 -8.46875 3.609375 -8.859375 4.984375 -8.859375 C 5.984375 -8.859375 6.882812 -8.660156 7.6875 -8.265625 L 6.984375 -6.421875 C 6.609375 -6.578125 6.257812 -6.703125 5.9375 -6.796875 C 5.625 -6.890625 5.304688 -6.9375 4.984375 -6.9375 C 3.753906 -6.9375 3.140625 -6.0625 3.140625 -4.3125 C 3.140625 -2.613281 3.753906 -1.765625 4.984375 -1.765625 C 5.441406 -1.765625 5.863281 -1.820312 6.25 -1.9375 C 6.632812 -2.0625 7.023438 -2.253906 7.421875 -2.515625 L 7.421875 -0.484375 C 7.035156 -0.242188 6.644531 -0.078125 6.25 0.015625 C 5.863281 0.109375 5.375 0.15625 4.78125 0.15625 Z M 4.78125 0.15625" transform="translate(74.584 32.566)"/></g></g></g><g fill="#3D3D3D"><g><g><path d="M 3.515625 -4.734375 L 4.5625 -6.046875 L 6.984375 -8.6875 L 9.65625 -8.6875 L 6.21875 -4.921875 L 9.875 0 L 7.140625 0 L 4.640625 -3.515625 L 3.609375 -2.703125 L 3.609375 0 L 1.25 0 L 1.25 -12.09375 L 3.609375 -12.09375 L 3.609375 -6.703125 L 3.484375 -4.734375 Z M 3.515625 -4.734375" transform="translate(82.766 32.566)"/></g></g></g><g fill="#3D3D3D"><g><g><path d="M 4.84375 -7.171875 C 4.34375 -7.171875 3.945312 -7.007812 3.65625 -6.6875 C 3.375 -6.375 3.210938 -5.921875 3.171875 -5.328125 L 6.5 -5.328125 C 6.488281 -5.921875 6.332031 -6.375 6.03125 -6.6875 C 5.738281 -7.007812 5.34375 -7.171875 4.84375 -7.171875 Z M 5.171875 0.15625 C 3.773438 0.15625 2.679688 -0.226562 1.890625 -1 C 1.109375 -1.769531 0.71875 -2.863281 0.71875 -4.28125 C 0.71875 -5.738281 1.082031 -6.863281 1.8125 -7.65625 C 2.539062 -8.457031 3.546875 -8.859375 4.828125 -8.859375 C 6.054688 -8.859375 7.007812 -8.503906 7.6875 -7.796875 C 8.375 -7.097656 8.71875 -6.132812 8.71875 -4.90625 L 8.71875 -3.75 L 3.125 -3.75 C 3.144531 -3.082031 3.34375 -2.554688 3.71875 -2.171875 C 4.09375 -1.796875 4.613281 -1.609375 5.28125 -1.609375 C 5.8125 -1.609375 6.304688 -1.660156 6.765625 -1.765625 C 7.234375 -1.878906 7.722656 -2.054688 8.234375 -2.296875 L 8.234375 -0.453125 C 7.816406 -0.242188 7.375 -0.09375 6.90625 0 C 6.4375 0.101562 5.859375 0.15625 5.171875 0.15625 Z M 5.171875 0.15625" transform="translate(92.634 32.566)"/></g></g></g><g fill="#3D3D3D"><g><g><path d="M 6.09375 -8.859375 C 6.414062 -8.859375 6.679688 -8.832031 6.890625 -8.78125 L 6.71875 -6.5625 C 6.519531 -6.613281 6.285156 -6.640625 6.015625 -6.640625 C 5.253906 -6.640625 4.660156 -6.441406 4.234375 -6.046875 C 3.816406 -5.660156 3.609375 -5.117188 3.609375 -4.421875 L 3.609375 0 L 1.25 0 L 1.25 -8.6875 L 3.046875 -8.6875 L 3.390625 -7.234375 L 3.5 -7.234375 C 3.769531 -7.722656 4.132812 -8.113281 4.59375 -8.40625 C 5.050781 -8.707031 5.550781 -8.859375 6.09375 -8.859375 Z M 6.09375 -8.859375" transform="translate(102.036 32.566)"/></g></g></g></svg>